/* XPM */
static char * sp15_xpm[] = {
"15 15 45 1",
" 	c #C60B1E",
".	c #D22F19",
"+	c #FFCE00",
"@	c #FFCF00",
"#	c #FBC901",
"$	c #FECA00",
"%	c #FFC400",
"&	c #FBC000",
"*	c #C79110",
"=	c #D08E0B",
"-	c #F9BF00",
";	c #FFC500",
">	c #E0AD0D",
",	c #A95D0D",
"'	c #A86730",
")	c #E6B20D",
"!	c #C99E3A",
"~	c #983F1C",
"{	c #BC98A4",
"]	c #D3A83C",
"^	c #FFC600",
"/	c #C07B46",
"(	c #8B4A1D",
"_	c #AD705B",
":	c #CA893D",
"<	c #FFC700",
"[	c #BDA048",
"}	c #B77812",
"|	c #BB6710",
"1	c #CC9E30",
"2	c #FFC900",
"3	c #FAB503",
"4	c #FDB701",
"5	c #C59C1F",
"6	c #E09F15",
"7	c #DD8F15",
"8	c #D9A414",
"9	c #FDB601",
"0	c #DB4E14",
"a	c #DA4D14",
"b	c #E05010",
"c	c #DE5112",
"d	c #DE5212",
"e	c #DE5011",
"f	c #C4031F",
"               ",
"               ",
"               ",
"...............",
"+++@#$+++++++++",
"%%%&*=-%%%%%%%%",
"%%;>,');%%%%%%%",
"%%;!~{]^%%%%%%%",
"%%;/(_:<%%%%%%%",
"^^<[}|12^^^^^^^",
"334567893333333",
"00abcdea0000000",
"fffffffffffffff",
"               ",
"               "};
